<svg width="40" height="40" viewBox="0 0 40 40" fill="none" xmlns="http://www.w3.org/2000/svg">
<rect x="0.5" y="0.5" width="39" height="39" rx="19.5" fill="white"/>
<rect x="0.5" y="0.5" width="39" height="39" rx="19.5" stroke="#F3F4F6"/>
<g clip-path="url(#clip0_2015_1544)">
<path d="M14.6351 18.0475C14.6351 18.3412 14.6669 18.5792 14.7224 18.7538C14.7859 18.9285 14.8653 19.1189 14.9764 19.3253C15.0161 19.3888 15.032 19.4523 15.032 19.5078C15.032 19.5872 14.9843 19.6665 14.8812 19.7459L14.3812 20.0792C14.3097 20.1269 14.2383 20.1507 14.1748 20.1507C14.0954 20.1507 14.0161 20.111 13.9367 20.0396C13.8256 19.9205 13.7304 19.7935 13.651 19.6665C13.5716 19.5316 13.4923 19.3808 13.405 19.1983C12.7859 19.9285 12.0081 20.2935 11.0716 20.2935C10.405 20.2935 9.87322 20.1031 9.48434 19.7221C9.09545 19.3411 8.89703 18.8332 8.89703 18.1983C8.89703 17.5237 9.13513 16.9761 9.61926 16.5634C10.1034 16.1507 10.7462 15.9443 11.5637 15.9443C11.8335 15.9443 12.1113 15.9681 12.405 16.0078C12.6986 16.0475 13.0002 16.111 13.3177 16.1824V15.6031C13.3177 14.9999 13.1907 14.5792 12.9447 14.3332C12.6907 14.0872 12.2621 13.9681 11.651 13.9681C11.3732 13.9681 11.0875 13.9999 10.7939 14.0713C10.5002 14.1427 10.2145 14.23 9.93672 14.3412C9.80973 14.3967 9.71449 14.4285 9.65894 14.4443C9.60338 14.4602 9.5637 14.4681 9.53195 14.4681C9.42084 14.4681 9.36529 14.3888 9.36529 14.2221V13.8332C9.36529 13.7062 9.38116 13.611 9.42084 13.5554C9.46053 13.4999 9.53195 13.4443 9.64307 13.3888C9.92084 13.2459 10.2542 13.1269 10.6431 13.0316C11.032 12.9285 11.4447 12.8808 11.8812 12.8808C12.8256 12.8808 13.5161 13.0951 13.9605 13.5237C14.397 13.9523 14.6193 14.6031 14.6193 15.4761V18.0475H14.6351ZM11.4129 19.2538C11.6748 19.2538 11.9447 19.2062 12.2304 19.111C12.5161 19.0158 12.77 18.8412 12.9843 18.6031C13.1113 18.4523 13.2066 18.2856 13.2542 18.0951C13.3018 17.9046 13.3335 17.6745 13.3335 17.4046V17.0713C13.1034 17.0158 12.8574 16.9681 12.6034 16.9364C12.3494 16.9046 12.1034 16.8888 11.8574 16.8888C11.3256 16.8888 10.9367 16.9919 10.6748 17.2062C10.4129 17.4205 10.2859 17.7221 10.2859 18.1189C10.2859 18.4919 10.3812 18.7697 10.5796 18.9602C10.77 19.1586 11.0478 19.2538 11.4129 19.2538ZM17.7859 20.111C17.6431 20.111 17.5478 20.0872 17.4843 20.0316C17.4208 19.984 17.3653 19.8729 17.3177 19.7221L15.4526 13.5872C15.405 13.4285 15.3812 13.3253 15.3812 13.2697C15.3812 13.1427 15.4447 13.0713 15.5716 13.0713H16.3494C16.5002 13.0713 16.6034 13.0951 16.6589 13.1507C16.7224 13.1983 16.7701 13.3094 16.8177 13.4602L18.151 18.7142L19.3891 13.4602C19.4288 13.3015 19.4764 13.1983 19.5399 13.1507C19.6034 13.1031 19.7145 13.0713 19.8574 13.0713H20.4923C20.6431 13.0713 20.7462 13.0951 20.8097 13.1507C20.8732 13.1983 20.9288 13.3094 20.9605 13.4602L22.2145 18.7777L23.5875 13.4602C23.6351 13.3015 23.6907 13.1983 23.7462 13.1507C23.8097 13.1031 23.9129 13.0713 24.0558 13.0713H24.7939C24.9208 13.0713 24.9923 13.1348 24.9923 13.2697C24.9923 13.3094 24.9843 13.3491 24.9764 13.3967C24.9685 13.4443 24.9526 13.5078 24.9208 13.5951L23.0081 19.73C22.9605 19.8888 22.905 19.9919 22.8415 20.0396C22.778 20.0872 22.6748 20.1189 22.5399 20.1189H21.8574C21.7066 20.1189 21.6034 20.0951 21.5399 20.0396C21.4764 19.984 21.4208 19.8808 21.3891 19.7221L20.1589 14.6031L18.9367 19.7142C18.897 19.8729 18.8494 19.9761 18.7859 20.0316C18.7224 20.0872 18.6113 20.111 18.4685 20.111H17.7859ZM27.9843 20.3253C27.5716 20.3253 27.1589 20.2777 26.7621 20.1824C26.3653 20.0872 26.0558 19.984 25.8494 19.865C25.7224 19.7935 25.6351 19.7142 25.6034 19.6427C25.5716 19.5713 25.5558 19.4919 25.5558 19.4205V19.0158C25.5558 18.8491 25.6193 18.7697 25.7383 18.7697C25.7859 18.7697 25.8335 18.7777 25.8812 18.7935C25.9288 18.8094 26.0002 18.8412 26.0796 18.8729C26.3494 18.9919 26.6431 19.0872 26.9526 19.1507C27.2701 19.2142 27.5796 19.2459 27.897 19.2459C28.397 19.2459 28.7859 19.1586 29.0558 18.984C29.3256 18.8094 29.4685 18.5554 29.4685 18.23C29.4685 18.0078 29.397 17.8253 29.2542 17.6745C29.1113 17.5237 28.8415 17.3888 28.4526 17.2618L27.3018 16.9046C26.7224 16.7221 26.2939 16.4523 26.032 16.0951C25.77 15.7459 25.6351 15.357 25.6351 14.9443C25.6351 14.611 25.7066 14.3173 25.8494 14.0634C25.9923 13.8094 26.1827 13.5872 26.4208 13.4126C26.6589 13.23 26.9288 13.0951 27.2462 12.9999C27.5637 12.9046 27.897 12.865 28.2462 12.865C28.4208 12.865 28.6034 12.8729 28.778 12.8967C28.9605 12.9205 29.1272 12.9523 29.2939 12.984C29.4526 13.0237 29.6034 13.0634 29.7462 13.111C29.8891 13.1586 30.0002 13.2062 30.0796 13.2538C30.1907 13.3173 30.27 13.3808 30.3177 13.4523C30.3653 13.5158 30.3891 13.6031 30.3891 13.7142V14.0872C30.3891 14.2538 30.3256 14.3412 30.2066 14.3412C30.1431 14.3412 30.0399 14.3094 29.905 14.2459C29.4526 14.0396 28.9447 13.9364 28.3812 13.9364C27.9288 13.9364 27.5716 14.0078 27.3256 14.1586C27.0796 14.3094 26.9526 14.5396 26.9526 14.865C26.9526 15.0872 27.032 15.2777 27.1907 15.4285C27.3494 15.5792 27.6431 15.73 28.0637 15.865L29.1907 16.2221C29.7621 16.4046 30.1748 16.6586 30.4208 16.984C30.6669 17.3094 30.7859 17.6824 30.7859 18.0951C30.7859 18.4364 30.7145 18.7459 30.5796 19.0158C30.4367 19.2856 30.2462 19.5237 30.0002 19.7142C29.7542 19.9126 29.4605 20.0554 29.1193 20.1586C28.7621 20.2697 28.3891 20.3253 27.9843 20.3253Z" fill="#252F3E"/>
<path fill-rule="evenodd" clip-rule="evenodd" d="M29.4833 24.1829C26.8722 26.1114 23.0785 27.1352 19.8166 27.1352C15.2452 27.1352 11.1261 25.4448 8.01502 22.6352C7.76899 22.413 7.99121 22.1114 8.28486 22.286C11.6499 24.2384 15.8007 25.421 20.0944 25.421C22.9912 25.421 26.1737 24.8178 29.1023 23.5797C29.5388 23.3813 29.9118 23.8654 29.4833 24.1829Z" fill="#FF9900"/>
<path fill-rule="evenodd" clip-rule="evenodd" d="M30.5704 22.9445C30.2371 22.5159 28.3641 22.7381 27.5148 22.8413C27.2609 22.8731 27.2212 22.6508 27.4514 22.4842C28.9434 21.4366 31.3958 21.7381 31.6815 22.0873C31.9672 22.4445 31.6021 24.8969 30.2053 26.0715C29.991 26.254 29.7847 26.1588 29.8799 25.9207C30.1974 25.135 30.9037 23.3651 30.5704 22.9445Z" fill="#FF9900"/>
</g>
<defs>
<clipPath id="clip0_2015_1544">
<rect width="24.127" height="14.4444" fill="white" transform="translate(7.77747 12.7778)"/>
</clipPath>
</defs>
</svg>
