<svg width="168" height="30" viewBox="0 0 168 30" fill="none" xmlns="http://www.w3.org/2000/svg">
<rect width="167.818" height="30" fill="white"/>
<path d="M34.6667 8L31.8 10.8667V8H24.8L22 10.8V8H15L12.1028 10.8972L8 15V22H15L17.8 19.2V22H24.8L27.6667 19.1333V22H34.6667L41.6667 15V8H34.6667Z" fill="#0028CA"/>
<path d="M50.4974 21.772L47.667 12.1981H50.4784L52.264 19.8725L51.7321 19.8535L53.7837 12.1981H56.918L58.9696 19.8535L58.4377 19.8725L60.2043 12.1981H63.0157L60.2043 21.772H57.2409L55.0564 13.9267H55.6453L53.4418 21.772H50.4974Z" fill="#20232C"/>
<path d="M68.0556 22C67.1311 22 66.3016 21.7847 65.5671 21.3541C64.8326 20.9236 64.25 20.3347 63.8195 19.5875C63.3889 18.8277 63.1736 17.9665 63.1736 17.0041C63.1736 16.0163 63.3889 15.1488 63.8195 14.4016C64.25 13.6418 64.8326 13.0466 65.5671 12.616C66.3143 12.1854 67.1438 11.9701 68.0556 11.9701C68.9927 11.9701 69.8285 12.1854 70.563 12.616C71.2975 13.0466 71.8801 13.6418 72.3106 14.4016C72.7412 15.1488 72.9565 16.0099 72.9565 16.9851C72.9565 17.9602 72.7412 18.8277 72.3106 19.5875C71.8801 20.3347 71.2975 20.9236 70.563 21.3541C69.8285 21.7847 68.9927 22 68.0556 22ZM68.0556 19.5305C68.4355 19.5305 68.7711 19.4355 69.0623 19.2456C69.3663 19.0556 69.6069 18.7707 69.7842 18.3908C69.9615 18.0109 70.0501 17.5423 70.0501 16.9851C70.0501 16.4279 69.9615 15.9593 69.7842 15.5794C69.6069 15.1995 69.3726 14.9145 69.0813 14.7246C68.7901 14.5346 68.4545 14.4396 68.0746 14.4396C67.6946 14.4396 67.3527 14.5346 67.0488 14.7246C66.7575 14.9145 66.5232 15.1995 66.3459 15.5794C66.1686 15.9593 66.08 16.4279 66.08 16.9851C66.08 17.5423 66.1686 18.0109 66.3459 18.3908C66.5232 18.7707 66.7575 19.0556 67.0488 19.2456C67.3527 19.4355 67.6883 19.5305 68.0556 19.5305Z" fill="#20232C"/>
<path d="M74.3857 21.772V12.1981H76.9121L77.1781 13.9457C77.4313 13.5405 77.7289 13.1922 78.0709 12.9009C78.4128 12.6097 78.8054 12.3817 79.2486 12.2171C79.7045 12.0525 80.1921 11.9701 80.7113 11.9701V14.9905H79.7615C79.3816 14.9905 79.0333 15.0348 78.7167 15.1235C78.4128 15.1995 78.1468 15.3324 77.9189 15.5224C77.7036 15.7123 77.5326 15.972 77.406 16.3012C77.292 16.6178 77.235 17.0167 77.235 17.498V21.772H74.3857Z" fill="#20232C"/>
<path d="M85.765 22C84.9165 22 84.144 21.7847 83.4475 21.3541C82.7636 20.9236 82.2191 20.3347 81.8138 19.5875C81.4212 18.8277 81.2249 17.9665 81.2249 17.0041C81.2249 16.0289 81.4276 15.1678 81.8328 14.4206C82.238 13.6608 82.7889 13.0656 83.4854 12.635C84.1946 12.1918 84.9798 11.9701 85.8409 11.9701C86.4995 11.9701 87.0757 12.0905 87.5696 12.3311C88.0635 12.559 88.4687 12.8946 88.7853 13.3379V8.09498H91.6347V21.772H89.1082L88.7853 20.5373C88.5953 20.8033 88.3611 21.0502 88.0825 21.2782C87.8165 21.4934 87.4936 21.6644 87.1137 21.791C86.7338 21.9303 86.2842 22 85.765 22ZM86.5058 19.5115C86.9744 19.5115 87.3859 19.4039 87.7405 19.1886C88.1078 18.9733 88.3864 18.6757 88.5764 18.2958C88.779 17.9159 88.8803 17.479 88.8803 16.9851C88.8803 16.4912 88.779 16.0543 88.5764 15.6744C88.3864 15.2944 88.1078 14.9968 87.7405 14.7815C87.3859 14.5663 86.9744 14.4586 86.5058 14.4586C86.0499 14.4586 85.6383 14.5663 85.2711 14.7815C84.9165 14.9968 84.6379 15.2944 84.4352 15.6744C84.2326 16.0543 84.1313 16.4848 84.1313 16.9661C84.1313 17.46 84.2326 17.9032 84.4352 18.2958C84.6379 18.6757 84.9165 18.9733 85.2711 19.1886C85.6383 19.4039 86.0499 19.5115 86.5058 19.5115Z" fill="#20232C"/>
<path d="M95.2076 21.772L92.3772 12.1981H95.1886L96.9742 19.8725L96.4423 19.8535L98.4939 12.1981H101.628L103.68 19.8535L103.148 19.8725L104.914 12.1981H107.726L104.914 21.772H101.951L99.7666 13.9267H100.355L98.1519 21.772H95.2076Z" fill="#20232C"/>
<path d="M112.766 22C111.841 22 111.012 21.7847 110.277 21.3541C109.543 20.9236 108.96 20.3347 108.53 19.5875C108.099 18.8277 107.884 17.9665 107.884 17.0041C107.884 16.0163 108.099 15.1488 108.53 14.4016C108.96 13.6418 109.543 13.0466 110.277 12.616C111.024 12.1854 111.854 11.9701 112.766 11.9701C113.703 11.9701 114.539 12.1854 115.273 12.616C116.008 13.0466 116.59 13.6418 117.021 14.4016C117.451 15.1488 117.667 16.0099 117.667 16.9851C117.667 17.9602 117.451 18.8277 117.021 19.5875C116.59 20.3347 116.008 20.9236 115.273 21.3541C114.539 21.7847 113.703 22 112.766 22ZM112.766 19.5305C113.146 19.5305 113.481 19.4355 113.773 19.2456C114.076 19.0556 114.317 18.7707 114.494 18.3908C114.672 18.0109 114.76 17.5423 114.76 16.9851C114.76 16.4279 114.672 15.9593 114.494 15.5794C114.317 15.1995 114.083 14.9145 113.792 14.7246C113.5 14.5346 113.165 14.4396 112.785 14.4396C112.405 14.4396 112.063 14.5346 111.759 14.7246C111.468 14.9145 111.233 15.1995 111.056 15.5794C110.879 15.9593 110.79 16.4279 110.79 16.9851C110.79 17.5423 110.879 18.0109 111.056 18.3908C111.233 18.7707 111.468 19.0556 111.759 19.2456C112.063 19.4355 112.398 19.5305 112.766 19.5305Z" fill="#20232C"/>
<path d="M119.096 21.772V12.1981H121.622L121.888 13.9457C122.142 13.5405 122.439 13.1922 122.781 12.9009C123.123 12.6097 123.516 12.3817 123.959 12.2171C124.415 12.0525 124.902 11.9701 125.421 11.9701V14.9905H124.472C124.092 14.9905 123.744 15.0348 123.427 15.1235C123.123 15.1995 122.857 15.3324 122.629 15.5224C122.414 15.7123 122.243 15.972 122.116 16.3012C122.002 16.6178 121.945 17.0167 121.945 17.498V21.772H119.096Z" fill="#20232C"/>
<path d="M132.695 21.772L128.744 16.5292L132.259 12.1981H135.621L130.891 17.7449V15.4654L136.229 21.772H132.695ZM126.313 21.772V8.09498H129.162V21.772H126.313Z" fill="#20232C"/>
<path d="M140.506 22C139.606 22 138.828 21.8607 138.169 21.5821C137.523 21.2908 137.01 20.8982 136.63 20.4043C136.263 19.9104 136.054 19.3532 136.004 18.7327H138.834C138.885 18.948 138.973 19.1443 139.1 19.3216C139.239 19.4862 139.423 19.6192 139.651 19.7205C139.891 19.8091 140.157 19.8535 140.449 19.8535C140.765 19.8535 141.018 19.8155 141.208 19.7395C141.411 19.6508 141.563 19.5369 141.664 19.3976C141.766 19.2583 141.816 19.1126 141.816 18.9607C141.816 18.72 141.74 18.5364 141.588 18.4098C141.449 18.2831 141.24 18.1818 140.961 18.1058C140.683 18.0172 140.347 17.9349 139.955 17.8589C139.499 17.7576 139.043 17.6436 138.587 17.517C138.144 17.3777 137.745 17.2067 137.39 17.0041C137.048 16.8014 136.77 16.5418 136.554 16.2252C136.352 15.896 136.25 15.4971 136.25 15.0285C136.25 14.4586 136.409 13.9457 136.725 13.4898C137.042 13.0213 137.498 12.654 138.093 12.3881C138.688 12.1095 139.41 11.9701 140.259 11.9701C141.462 11.9701 142.405 12.2361 143.089 12.768C143.773 13.2999 144.178 14.0154 144.305 14.9145H141.645C141.569 14.6612 141.411 14.4713 141.17 14.3446C140.93 14.2053 140.626 14.1357 140.259 14.1357C139.841 14.1357 139.524 14.2053 139.309 14.3446C139.094 14.4839 138.986 14.6676 138.986 14.8955C138.986 15.0475 139.056 15.1868 139.195 15.3134C139.347 15.4274 139.562 15.5287 139.841 15.6174C140.119 15.706 140.461 15.7947 140.867 15.8833C141.639 16.0479 142.304 16.2252 142.861 16.4152C143.431 16.6052 143.874 16.8838 144.191 17.251C144.507 17.6056 144.659 18.1248 144.647 18.8087C144.659 19.4292 144.495 19.9801 144.153 20.4613C143.824 20.9426 143.349 21.3225 142.728 21.6011C142.108 21.867 141.367 22 140.506 22Z" fill="#20232C"/>
<path d="M149.282 22C148.485 22 147.82 21.8734 147.288 21.6201C146.769 21.3668 146.382 21.0249 146.129 20.5943C145.889 20.1511 145.768 19.6635 145.768 19.1316C145.768 18.5617 145.907 18.0615 146.186 17.6309C146.477 17.1877 146.927 16.8394 147.535 16.5862C148.143 16.3202 148.909 16.1872 149.833 16.1872H152.151C152.151 15.7567 152.094 15.4021 151.98 15.1235C151.879 14.8449 151.708 14.6359 151.467 14.4966C151.226 14.3573 150.897 14.2877 150.479 14.2877C150.036 14.2877 149.662 14.3763 149.358 14.5536C149.054 14.7309 148.865 15.0095 148.789 15.3894H146.053C146.116 14.7056 146.338 14.1104 146.718 13.6038C147.111 13.0972 147.63 12.6983 148.276 12.4071C148.922 12.1158 149.662 11.9701 150.498 11.9701C151.41 11.9701 152.201 12.1221 152.873 12.4261C153.544 12.7173 154.063 13.1479 154.43 13.7178C154.81 14.2877 155 14.9968 155 15.8453V21.772H152.626L152.284 20.3853C152.144 20.626 151.98 20.8476 151.79 21.0502C151.6 21.2402 151.378 21.4111 151.125 21.5631C150.872 21.7024 150.593 21.81 150.289 21.886C149.985 21.962 149.65 22 149.282 22ZM149.985 19.8345C150.289 19.8345 150.555 19.7838 150.783 19.6825C151.011 19.5812 151.207 19.4419 151.372 19.2646C151.537 19.0873 151.67 18.8847 151.771 18.6567C151.885 18.4161 151.967 18.1565 152.018 17.8779V17.8589H150.175C149.859 17.8589 149.593 17.9032 149.377 17.9919C149.175 18.0678 149.023 18.1818 148.922 18.3338C148.82 18.4858 148.77 18.663 148.77 18.8657C148.77 19.081 148.82 19.2646 148.922 19.4166C149.035 19.5559 149.181 19.6635 149.358 19.7395C149.548 19.8028 149.757 19.8345 149.985 19.8345Z" fill="#20232C"/>
<path d="M156.646 21.772V12.1981H159.496V21.772H156.646ZM158.071 11.0963C157.564 11.0963 157.153 10.9507 156.836 10.6594C156.52 10.3682 156.361 10.0009 156.361 9.55767C156.361 9.10176 156.52 8.72818 156.836 8.43691C157.153 8.14564 157.564 8 158.071 8C158.59 8 159.008 8.14564 159.325 8.43691C159.654 8.72818 159.819 9.10176 159.819 9.55767C159.819 10.0009 159.654 10.3682 159.325 10.6594C159.008 10.9507 158.59 11.0963 158.071 11.0963Z" fill="#20232C"/>
</svg>
